<svg xmlns="http://www.w3.org/2000/svg" viewBox="0 0 64 64" fill="none">
  <!-- Power tower pole -->
  <rect x="29" y="8" width="6" height="48" rx="1" fill="#78909C"/>
  <!-- Cross arms -->
  <rect x="14" y="14" width="36" height="4" rx="1" fill="#78909C"/>
  <rect x="18" y="24" width="28" height="3" rx="1" fill="#78909C"/>
  <!-- Insulators -->
  <circle cx="16" cy="20" r="2.5" fill="#42A5F5"/>
  <circle cx="48" cy="20" r="2.5" fill="#42A5F5"/>
  <circle cx="20" cy="29" r="2" fill="#42A5F5"/>
  <circle cx="44" cy="29" r="2" fill="#42A5F5"/>
  <!-- Power lines -->
  <path d="M2 20 Q16 24 16 20" stroke="#FFD54F" stroke-width="1.5" fill="none"/>
  <path d="M48 20 Q48 24 62 20" stroke="#FFD54F" stroke-width="1.5" fill="none"/>
  <path d="M4 29 Q20 33 20 29" stroke="#FFD54F" stroke-width="1.2" fill="none"/>
  <path d="M44 29 Q44 33 60 29" stroke="#FFD54F" stroke-width="1.2" fill="none"/>
  <!-- Base -->
  <path d="M22 56 L32 42 L42 56Z" fill="#78909C" opacity="0.6"/>
  <rect x="18" y="56" width="28" height="3" rx="1.5" fill="#90A4AE"/>
  <!-- Spark -->
  <circle cx="32" cy="12" r="2" fill="#FFD54F" opacity="0.6"/>
</svg>
